:SAMPLES-PER-SECOND 24
:FULLY-SPECIFIED
:DEGREES
554
root  -5.20816 38.7674 -31.0233 178.427 76.1632 167.924
RightUpLeg  -19.1777 12.1412 -21.7025
RightLeg  30.1969 -13.7 -8.68813
RightFoot  -6.0941 -0.141917 1.87371
RightToes  -2.09809e-008 3.77894e-005 6.81332e-007
Spine  -0.248137 2.21388 7.09931
Spine1  3.75874 3.95674 -9.04546
HEad  -26.651 39.4864 -24.2353
LeftShoulder1  6.25965 -11.917 -34.5761
LeftArm  6.43119 17.834 -28.1604
LeftForeArm  171.919 -62.2968 -161.391
LeftHand  -0.169148 -2.33447 2.74153
RightShoulder  3.67597 6.44253 31.0623
RightArm  16.6293 -25.9972 31.077
RightForeArm  158.374 72.1098 148.427
RightHand  -0.414588 9.6046 -3.60019
LeftUpLeg  -19.8559 1.22459 10.67
LeftLeg  27.2662 2.77364 1.89533
LeftFoot  -6.60034 0.771025 -17.6057
LeftToes  1.24773e-006 1.46318e-008 1.32523e-009
555
root  -5.08719 37.6884 -29.9053 174.624 76.0721 164.789
RightUpLeg  -20.3508 12.5463 -22.3817
RightLeg  35.1182 -11.1501 -8.55876
RightFoot  -12.4614 0.0453468 13.2772
RightToes  -2.09809e-008 3.77894e-005 6.81332e-007
Spine  -0.217813 2.62464 4.95314
Spine1  5.76823 4.49599 -8.55578
HEad  -28.5183 38.494 -24.776
LeftShoulder1  6.95116 -12.6714 -36.9081
LeftArm  2.89614 13.623 -25.0846
LeftForeArm  170.453 -64.0505 -159.843
LeftHand  -0.327734 -1.3312 5.81368
RightShoulder  3.68761 6.43449 31.2114
RightArm  14.9578 -21.56 33.2357
RightForeArm  153.814 74.6693 142.241
RightHand  -0.436294 9.55423 -3.77868
LeftUpLeg  -20.8926 0.762543 11.8745
LeftLeg  31.1964 3.57219 2.68637
LeftFoot  -10.4199 0.213794 -18.7332
LeftToes  1.24773e-006 1.46318e-008 1.32523e-009
556
root  -4.72054 37.1038 -28.557 171.486 75.7072 162.148
RightUpLeg  -20.9161 11.5396 -20.9462
RightLeg  38.7592 -9.98235 -8.75535
RightFoot  -18.6098 0.964025 17.3903
RightToes  -2.09809e-008 3.77894e-005 6.81332e-007
Spine  -1.3142 3.0522 2.78305
Spine1  7.5139 5.01236 -8.0767
HEad  -28.4206 38.2526 -23.1346
LeftShoulder1  7.26615 -12.9922 -37.9461
LeftArm  -1.00183 11.8878 -23.2917
LeftForeArm  171.609 -64.8745 -159.248
LeftHand  -0.354339 -1.00388 6.56864
RightShoulder  3.75627 6.46214 31.8023
RightArm  13.4154 -20.298 35.1788
RightForeArm  154.146 75.4046 140.372
RightHand  -0.318767 9.92527 -2.81632
LeftUpLeg  -19.7084 -0.319899 13.2821
LeftLeg  30.4469 5.07845 3.56732
LeftFoot  -11.877 -0.0243484 -20.1625
LeftToes  1.24773e-006 1.46318e-008 1.32523e-009
557
root  -4.21026 37.3725 -27.0892 173.776 74.4327 164.839
RightUpLeg  -19.6879 10.931 -17.3095
RightLeg  38.7724 -10.7166 -9.33513
RightFoot  -19.8739 0.908528 13.8607
RightToes  -2.09809e-008 3.77894e-005 6.81332e-007
Spine  -2.29257 2.74111 1.68443
Spine1  7.82062 4.51829 -6.96179
HEad  -26.9151 39.149 -21.0188
LeftShoulder1  7.00571 -12.6843 -37.1999
LeftArm  -3.87441 14.8651 -24.4604
LeftForeArm  173.52 -63.3312 -160.734
LeftHand  -0.313855 -1.27215 5.61611
RightShoulder  3.83752 6.50434 32.4598
RightArm  13.5719 -22.7572 36.2744
RightForeArm  159.162 73.5867 145.633
RightHand  -0.268107 10.3825 -2.37823
LeftUpLeg  -17.9452 -2.97314 16.0967
LeftLeg  26.2406 7.28439 4.22518
LeftFoot  -6.99798 0.927156 -22.5186
LeftToes  1.24773e-006 1.46318e-008 1.32523e-009
558
root  -3.67976 38.5198 -25.6756 179.582 71.7433 170.472
RightUpLeg  -16.3239 7.6742 -13.0865
RightLeg  32.8458 -11.0744 -7.80461
RightFoot  -16.135 0.358472 11.0365
RightToes  -2.09809e-008 3.77894e-005 6.81332e-007
Spine  -3.804 1.67355 0.339481
Spine1  7.53109 2.80983 -4.33587
HEad  -23.9854 40.5524 -18.574
LeftShoulder1  6.71435 -12.3485 -36.3084
LeftArm  -4.25468 20.9271 -27.3003
LeftForeArm  173.829 -60.9789 -162.51
LeftHand  -0.29803 -1.14634 5.43309
RightShoulder  3.82125 6.47001 32.4285
RightArm  14.9183 -26.836 35.7338
RightForeArm  162.263 71.5529 149.957
RightHand  -0.297913 10.2971 -2.60948
LeftUpLeg  -17.1049 -4.16551 19.2216
LeftLeg  19.103 11.0386 4.42987
LeftFoot  7.89232 3.82222 -22.6
LeftToes  1.24773e-006 1.46318e-008 1.32523e-009
559
root  -3.21724 39.9767 -24.487 -176.077 69.4357 173.768
RightUpLeg  -13.3409 0.903054 -10.5267
RightLeg  24.1979 -6.24639 -3.27953
RightFoot  -9.5507 -0.237954 11.0286
RightToes  -2.09809e-008 3.77894e-005 6.81332e-007
Spine  -5.84623 0.695978 -0.656683
Spine1  6.80773 1.41632 -2.8778
HEad  -19.8898 41.7689 -15.3693
LeftShoulder1  6.49759 -12.1262 -35.543
LeftArm  -3.49358 27.6007 -31.2346
LeftForeArm  174.736 -59.5 -163.566
LeftHand  -0.269427 -1.31896 4.81065
RightShoulder  3.7494 6.39256 32.0006
RightArm  16.3057 -30.7882 33.3124
RightForeArm  163.644 70.2282 152.206
RightHand  -0.258142 10.0475 -2.34331
LeftUpLeg  -16.9206 5.54543 18.082
LeftLeg  10.7325 8.53693 3.92342
LeftFoot  21.3666 5.9806 -20.6516
LeftToes  1.24773e-006 1.46318e-008 1.32523e-009
